<?xml version="1.0" encoding="utf-8"?>
<!-- Generator: Adobe Illustrator 16.0.0, SVG Export Plug-In . SVG Version: 6.00 Build 0)  -->
<!DOCTYPE svg PUBLIC "-//W3C//DTD SVG 1.1//EN" "http://www.w3.org/Graphics/SVG/1.1/DTD/svg11.dtd">
<svg version="1.1" id="Layer_1" xmlns="http://www.w3.org/2000/svg" xmlns:xlink="http://www.w3.org/1999/xlink" x="0px" y="0px"
	 width="100%" height="100%" viewBox="1.562 11.875 95.927 76.875" enable-background="new 1.562 11.875 95.927 76.875"
	 xml:space="preserve">
<g>
	<polygon points="1.562,44.219 6.406,44.219 6.406,88.75 38.438,88.75 38.438,44.219 43.281,44.219 43.281,35 1.562,35 	"/>
	<path d="M80.997,61.188c4.854-0.089,6.948-4.414,6.281-8.1c0.375-1.562,0.357-3.207-0.205-4.79
		C82.114,34.3,72.061,24.522,58.401,18.986c-5.185-2.102-11.232,2.271-12.58,7.175c-0.495,1.805-0.492,3.492-0.103,5.025v23.53
		c0,3.125,2.5,5.625,5.625,5.562c0.951,0,1.839-0.261,2.623-0.685c-4.595,5.146-7.742,11.808-9.012,19.688
		c-1.337,8.281,11.407,11.875,12.813,3.521c2.02-13.115,9.42-21.396,23.17-21.615H80.997z M56.201,57.258
		c0.397-0.766,0.641-1.62,0.641-2.542V40.767c4.02,2.656,7.344,6.406,9.219,10.186c-3.656,1.547-6.998,3.734-9.811,6.305H56.201z"/>
	<path d="M43.83,24.69c-0.192-4.822-4.145-8.676-9.014-8.676c-4.869,0-8.825,3.854-9.017,8.676h-0.017c0,0,0,0.156,0,0.18
		c0,0.06-0.011,0.117-0.011,0.18h0.019c0.192,4.844,4.219,8.75,9.062,8.75c4.869,0,8.825-3.854,9.017-8.675h0.019
		c0-0.062-0.008-0.12-0.011-0.18c0.001-0.061,0.011-0.119,0.011-0.18H43.83V24.69z"/>
	<path d="M97.26,45.526c-0.016-3.845-0.567-7.709-1.105-11.445c-0.183-1.286-0.365-2.555-0.521-3.795
		c-0.164-1.322-1.383-2.271-2.689-2.092c-1.321,0.164-2.258,1.369-2.094,2.689c0.16,1.25,0.312,2.5,0.469,3.906
		c0.52,3.594,1.094,7.344,1.094,10.876c0,0.156,0,0.156,0,0.231c1.922,19.947-5.571,20.861-14.251,21.875
		c-6.827,0.83-15.32,1.866-15.271,14.486c0,1.25,1.094,2.344,2.344,2.401h0.006c1.333-0.006,2.408-1.087,2.402-2.42
		c-0.028-7.983,3.561-8.776,11.037-9.687c0.448-0.051,0.903-0.109,1.364-0.168v10.048l-7.747,3.661
		c-0.602,0.286-0.857,1.003-0.565,1.602c0.204,0.469,0.625,0.625,1.094,0.688c0.173,0,0.353-0.036,0.516-0.117l7.825-3.708
		l7.168,3.75c0.177,0.156,0.312,0.156,0.625,0.136c0.437,0,0.863-0.235,1.074-0.652c0.305-0.594,0.073-1.32-0.516-1.622
		l-6.875-3.541V72.026c7.964-1.401,16.576-5.308,14.545-26.5H97.26z"/>
	<rect x="4.531" y="28.75" width="17.812" height="3.75"/>
	<rect x="4.531" y="24.062" width="17.812" height="3.75"/>
	<rect x="4.531" y="21.406" width="17.812" height="1.875"/>
	<rect x="4.531" y="18.75" width="17.812" height="1.406"/>
	<rect x="4.531" y="16.406" width="17.812" height="0.938"/>
	<rect x="4.531" y="14.844" width="17.812" height="0.938"/>
	<rect x="4.531" y="13.438" width="17.812" height="0.938"/>
	<rect x="4.531" y="11.875" width="17.812" height="0.938"/>
</g>
</svg>
