<?xml version="1.0" encoding="utf-8"?>
<!-- Generator: Adobe Illustrator 16.0.0, SVG Export Plug-In . SVG Version: 6.00 Build 0)  -->
<!DOCTYPE svg PUBLIC "-//W3C//DTD SVG 1.1//EN" "http://www.w3.org/Graphics/SVG/1.1/DTD/svg11.dtd">
<svg version="1.1" id="Layer_1" xmlns="http://www.w3.org/2000/svg" xmlns:xlink="http://www.w3.org/1999/xlink" x="0px" y="0px"
	 width="100%" height="100%" viewBox="0.073 12.152 99.917 75.696" enable-background="new 0.073 12.152 99.917 75.696"
	 xml:space="preserve">
<g>
	<path d="M73.568,35.161V20.744h-7.277v35.145c-6.676,3.764-13.918-0.529-13.918-0.529s-2.551-43.208-21.907-43.208
		c-19.307,0-20.311,0-20.311,0v39.736c-2.987,0-5.481,0-6.981,0c-6.978,0,0,24.772,0,24.704h4.327
		c0.3-6.139,5.373-11.045,11.586-11.045c6.21,0,11.232,4.924,11.54,11.078h14.129c-0.001-0.054-0.006-0.109-0.006-0.164
		c0-6.809,5.541-12.348,12.349-12.348c6.809,0,12.311,5.539,12.311,12.309c0,0.793-0.08,1.563-0.225,2.314h4.373V41.148H99.99
		v-2.684L73.568,35.161z M36.933,56.721l-6.444-11.275h-13.96v-26.85h13.96c5.759,0,8.924,8.001,10.617,14.768
		c1.059,4.308,4.309,20.003,4.616,23.359L36.933,56.721L36.933,56.721z"/>
	<polygon points="21.388,30.462 18.156,30.462 18.156,42.156 30.004,42.156 30.004,38.925 21.388,38.925 	"/>
	<path d="M57.128,65.513c-5.924,0-10.722,4.796-10.722,10.719s4.798,10.771,10.771,10.723c5.918,0,10.718-4.8,10.718-10.723
		s-4.849-10.688-10.811-10.719H57.128z M57.128,82.439c-3.425,0-6.207-2.786-6.207-6.208c0-3.423,2.785-6.204,6.207-6.204
		s6.155,2.77,6.155,6.204c0.049,3.468-2.659,6.237-6.198,6.208H57.128z"/>
	<path d="M18.712,67.482c-5.624,0-10.183,4.558-10.183,10.182c0,5.693,4.616,10.154,10.155,10.184
		c5.621,0,10.182-4.562,10.182-10.184c0.027-5.658-4.555-10.12-10.094-10.182H18.712z M18.712,83.559
		c-3.25,0-5.896-2.644-5.896-5.895c0-3.25,2.646-5.898,5.896-5.898c3.248,0,5.847,2.616,5.847,5.898
		c0.048,3.267-2.556,5.883-5.787,5.895H18.712z"/>
</g>
</svg>
