<?xml version="1.0" encoding="utf-8"?>
<!-- Generator: Adobe Illustrator 16.0.0, SVG Export Plug-In . SVG Version: 6.00 Build 0)  -->
<!DOCTYPE svg PUBLIC "-//W3C//DTD SVG 1.1//EN" "http://www.w3.org/Graphics/SVG/1.1/DTD/svg11.dtd">
<svg version="1.1" id="Layer_1" xmlns="http://www.w3.org/2000/svg" xmlns:xlink="http://www.w3.org/1999/xlink" x="0px" y="0px"
	 width="100%" height="100%" viewBox="0 13.289 100 73.344" enable-background="new 0 13.289 100 73.344" xml:space="preserve"
	>
<g>
	<path d="M58.706,37.526l-1.716,5.61c1.531,0.625,2.496,1.873,2.496,3.776c0,0.893-0.284,1.713-0.758,2.375l4.471,3.744
		c1.233-1.663,1.967-3.754,1.967-6.028c0.152-4.693-2.756-8.126-6.5-9.477H58.706z"/>
	<path d="M54.99,51.094c-2.035-0.019-3.68-1.785-3.68-3.938c0-2.15,1.642-3.917,3.68-3.932c0.383-0.003,0.623,0,1.248,0.312
		l1.707-5.601c-0.89-0.281-1.832-0.424-2.806-0.402c-5.024,0.103-9.034,4.481-9.034,9.764c0,5.306,4.057,9.674,9.05,9.674
		c3.005,0,5.704-1.411,7.437-3.754l-4.453-3.648c-0.85,0.855-1.969,1.479-3.218,1.526H54.99z"/>
	<path d="M94.102,40.428C100,38.141,100,37.919,100,37.326v-4.625c0-0.593,0-0.842-5.9-2.945l-0.209-0.075l-0.83-1.975l0.087-0.2
		c2.512-5.689,2.337-5.857,1.919-6.269l-3.339-3.267c-0.138-0.134-0.378-0.231-0.587-0.231c-0.189,0-0.755,0-5.697,2.237h-0.197
		l-2.035-0.821l-0.08-0.203c-2.325-5.664-2.621-5.664-3.246-5.664H75.16c-0.58,0-0.839,0-2.992,5.764l-0.081,0.209l-2.024,0.936
		l-0.197-0.081c-3.342-1.41-5.293-2.125-5.801-2.125c-0.206,0-0.449,0.094-0.587,0.228l-3.349,3.121
		c-0.424,0.418-0.599,0.624,2.185,6.163l0.097,0.206l-0.83,1.972l-0.203,0.078c-0.67,0.259-1.254,0.49-1.781,0.624
		c-0.197,0.078-1.367,0.839-2.1,1.301L42.064,30.96l-5.292,25.37h-0.003l-0.103,0.016c-1.279-2.172-3.664-3.408-6.987-3.408h-1.454
		c-1.95,1.904-5.361,3.178-9.268,3.178c-3.907,0-7.317-1.273-9.268-3.178H8.235c-5.127,0-8.063,2.896-8.063,7.727
		c0,4.831-0.156,18.04-0.156,20.596s-0.315,5.305,1.872,5.373c0.84,0,3.433,0,6.865,0c3.305,0,6.553,0,9.362,0
		c0.402,0,0.936,0,1.248,0c3.732,0,6.865,0,8.737,0c0.318,0,0.624,0,0.624,0c0.1,0,0.312,0,0.312,0c2.902,0,4.993,0,5.929,0
		c0.309,0,0.624,0,0.624,0c2.275,0,1.957-2.739,1.957-5.373c0-0.406-0.006-1.089-0.009-1.929h62.042v-4.194H37.852
		c-0.013-1.182-0.025-2.445-0.038-3.734l5.913,2.262l29.259-4.652l2.93-12.154h4.269c0.593,0,0.937,0,2.993-5.767l0.08-0.21
		l2.029-0.82l0.196,0.078c3.339,1.561,5.305,2.185,5.929,2.185c0.203,0,0.453-0.091,0.59-0.228l3.349-3.28
		c0.425-0.421,0.596-0.593-2.044-6.157L93.21,42.45l0.827-1.966L94.102,40.428z M43.534,33.332l30.601,2.044L67.438,63.65
		l-28.671-8.113L43.534,33.332z M37.743,60.664c0-0.867-0.125-1.647-0.312-2.384l0.109-0.019l24.269,6.931l-11.084,1.569
		l-12.979-4.225c0-0.568,0.013-1.192,0.013-1.873H37.743z M37.758,64.25l3.348,1.12l-3.336,0.624
		C37.765,65.401,37.758,64.777,37.758,64.25z M79.42,42.413l1.767-7.324l-1.776-1.236l-7.919,33.789l-27.567,4.032v-0.013
		l-6.125-2.241c-0.006-0.583-0.013-1.157-0.016-1.729l6.238,2.238l25.772-3.461l7.948-33.564l-7.093-0.384
		c0.084-0.315,0.175-0.627,0.197-0.674c1.238-2.502,3.854-4.234,6.877-4.234c4.223,0,7.801,3.433,7.801,7.502
		c-0.149,3.451-2.83,6.572-5.95,7.299H79.42z"/>
	<path d="M5.049,37.164c-0.028,0.153-0.056,0.465-0.056,0.546c-0.852,7.801,4.681,14.979,12.482,15.915
		c7.76,0.936,14.772-4.94,15.634-12.879c0.128-1.227,0.09-2.428-0.072-3.595c0.911-0.006,1.476-0.019,1.601-0.038
		c0.989-0.125,1.779-0.197,1.86-1.289c0.016-1.458-0.025-1.224-0.003-1.438c0.025-1.261-0.715-1.114-1.532-1.202
		c-0.818-0.087-1.819,0.038-1.819,0.038s-2.35-15.877-16.917-13.247c-4.468,0.802-7.489,2.674-9.361,4.833
		c3.851-1.847,8.113-2.783,12.17-2.159c3.592,0.312,6.553,2.184,8.425,4.836c-1.345-0.78-2.809-1.716-4.369-2.1
		c-1.376-0.864-3.121-1.176-4.369-1.488c-4.366-0.624-9.674,0.624-13.418,3.401c-2.496,4.712-1.872,9.705-1.872,9.858
		c0,0.153,0.665-0.153,1.56,0.006H5.049z M7.567,37.941c0.028-0.312,0.234-0.625,0.234-0.771c5.919,0,16.851,0,22.78,0.003
		c0.003,1.08,0,2.016,0,3.264c-0.705,6.503-6.425,11.241-12.744,10.557c-6.403-0.571-10.972-6.5-10.348-13.003L7.567,37.941z"/>
</g>
</svg>
